<?xml version="1.0" encoding="utf-8"?><!DOCTYPE svg PUBLIC "-//W3C//DTD SVG 1.1//EN" "http://www.w3.org/Graphics/SVG/1.1/DTD/svg11.dtd"><svg version="1.1" xmlns="http://www.w3.org/2000/svg" xmlns:xlink="http://www.w3.org/1999/xlink" x="0px" y="0px" width="300px" height="100px" viewBox="0 0 300 100" style="enable-background:new 0 0 300 100;" xml:space="preserve"><style type="text/css"><![CDATA[.st0{fill:#47AAD5;}.st1{fill:#AFD4E0;}.st2{fill:#15A086;}.st3{fill:#E58893;}.st4{fill:#E74C3C;}.st5{fill:#198E70;}.st6{fill:#E988B8;}.st7{fill:#4EBA6E;}.st8{fill:#B4752A;}.st9{fill:#879BAA;}.st10{fill:#894B9D;}.st11{fill:#89BF56;}.st12{fill:#50C1E9;}.st13{fill:#8EC04B;}.st14{fill:#8F7BB8;}.st15{fill:none;stroke:#A9A8A8;stroke-width:0.5;stroke-miterlimit:10;}.st16{fill:#F0C419;}.st17{fill:#25AE5F;}.st18{fill:#F5BB43;}.st19{fill:#27B999;}.st20{fill:#5BC2A8;}.st21{fill:#F8A91B;}.st22{fill:#C13B2B;}.st23{fill:#965BA5;}.st24{fill:#2B80BA;}.st25{fill:#2D3E50;}.st26{fill:#FFCD56;}.st27{fill:#676E77;}.st28{fill:#35495E;}.st29{fill:#3B97D3;}.st30{fill:#D870AC;}.st31{fill:#A0CF6E;}.st32{fill:#A592C5;}.st33{fill:#A692C6;}.st34{fill:#DC4553;}.st35{fill:#A9A8A8;}.st36{fill:#434B53;}.st37{fill:#457838;}]]></style><g id="treeB"><path class="st35" d="M146.529,87.75h-8.425c-3.077-6.579-3.809-12.862-3.14-15.891c-5.884-2.819-8.229-6.457-8.229-7.292c-7.894,4.695-9.029-8.344-18.857-7.832c9.229-1.357,8.56,8.667,18.189,6.787c-6.712-12.958,6.01-20.977-9.095-31.954c18.874,10.839-1.376,26.831,18.457,38.533c1.755-7.59,7.356-14.933,9.362-17.856c0.803-7.832-1.738-9.295-9.095-13.889c9.228,4.386,11.369,7.414,10.833,11.069c4.013-8.459,11.236-18.17-1.471-28.509c13.508,11.591,5.216,23.705,8.561,17.752c11.502-9.711,21.398-3.445,26.614-10.129c-12.973,10.338-20.597,1.044-28.354,14.725c-6.75,11.903-9.63,16.29-9.63,16.29s1.86-1.702,0,0c16.986-10.13,14.713,0.261,47.213-12.792c-30.293,13.418-34.774,2.453-49.62,18.117c-2.609,5.014-1.94,5.953-1.271,5.797c0.668-0.157,4.212-2.768,10.098-2.298c5.885,0.471,10.566,6.527,25.145,1.148c-21.666,7.52-19.326-5.691-35.309,2.82C140.178,79.5,141.648,83.521,146.529,87.75z"/><g><path class="st15" d="M67.142,82.5c7.75-9.798,4-35.048,0-39.298"/><path class="st15" d="M68.721,89.341c-4.75-15.048-3.25-24.548-1.25-25.048"/><path class="st15" d="M74.511,89.341c-3.75-17.298,7.5-13.786,0-33.417"/></g><g><path class="st15" d="M235.277,84.185c-8.131-5.923-4.197-21.185,0-23.754"/><path class="st15" d="M233.621,88.319c4.982-9.096,3.409-14.838,1.311-15.141"/><path class="st15" d="M227.547,88.319c3.934-10.456-7.869-8.333,0-20.199"/></g><g><path class="st15" d="M204.028,89c12.25-12.75,2.5-23.5,2-39"/><path class="st15" d="M199.584,89c-1.25-11.5,16.5-20.5,21.25-29.25"/></g></g><g id="leaf"><ellipse class="st32" cx="206.387" cy="50" rx="3.791" ry="3"/><ellipse class="st34" cx="236.933" cy="73.179" rx="3.125" ry="2.25"/><ellipse class="st18" cx="233.737" cy="59.388" rx="3.195" ry="3.464"/><ellipse class="st11" cx="225.187" cy="69.965" rx="3.187" ry="3.214"/><ellipse class="st21" cx="115.125" cy="29.5" rx="3.875" ry="4"/><ellipse class="st2" cx="134.663" cy="31.891" rx="3.696" ry="3.125"/><ellipse class="st8" cx="115.767" cy="54.358" rx="3.233" ry="2.804"/><ellipse class="st16" cx="105.439" cy="39.266" rx="2.439" ry="2.625"/><ellipse class="st21" cx="118.188" cy="42.688" rx="3.063" ry="4.313"/><ellipse class="st22" cx="125" cy="25.5" rx="4" ry="3.417"/><ellipse class="st0" cx="132.097" cy="57.172" rx="4.38" ry="4.006"/><ellipse transform="matrix(-0.9811 0.1936 -0.1936 -0.9811 259.4117 49.4381)" class="st4" cx="127.29" cy="37.394" rx="2.29" ry="3.765"/><ellipse class="st20" cx="132.87" cy="20.604" rx="4.38" ry="4.896"/><ellipse class="st5" cx="144.875" cy="31.75" rx="5.125" ry="4"/><ellipse class="st29" cx="147.438" cy="40.531" rx="2.563" ry="2.156"/><ellipse class="st19" cx="142.313" cy="20.375" rx="2.563" ry="3.375"/><ellipse class="st14" cx="169.5" cy="27.75" rx="3.875" ry="2.885"/><ellipse class="st13" cx="171.634" cy="39.5" rx="2.343" ry="4.885"/><circle class="st33" cx="158.5" cy="30.875" r="2.25"/><ellipse class="st30" cx="168" cy="17" rx="2.75" ry="2.875"/><ellipse class="st24" cx="152" cy="50.891" rx="2" ry="2.109"/><ellipse class="st37" cx="169.125" cy="49.372" rx="2" ry="2.109"/><ellipse class="st10" cx="185.125" cy="29.5" rx="2.625" ry="2.391"/><ellipse class="st19" cx="179.115" cy="37.07" rx="2.412" ry="3.961"/><ellipse class="st1" cx="151.219" cy="63.34" rx="3.781" ry="3.41"/><ellipse class="st9" cx="160.5" cy="59.388" rx="2" ry="3.464"/><ellipse class="st9" cx="162.625" cy="66.207" rx="2.125" ry="1.913"/><ellipse transform="matrix(-0.4066 -0.9136 0.9136 -0.4066 197.9216 245.2995)" class="st36" cx="178.625" cy="58.373" rx="4.517" ry="3.075"/><ellipse transform="matrix(-0.9244 -0.3815 0.3815 -0.9244 342.6916 165.4986)" class="st17" cx="187.75" cy="48.782" rx="2.662" ry="3.615"/><ellipse class="st25" cx="173.375" cy="68.12" rx="3.703" ry="3.213"/><path class="st19" d="M67.458,34.615c-3.797,0-6.875,2.91-6.875,6.5s3.078,6.5,6.875,6.5s6.875-2.91,6.875-6.5S71.255,34.615,67.458,34.615z M68.011,41.574c0,0.056-0.001,0.118-0.003,0.186c-0.002,0.068-0.003,0.132-0.003,0.192v0.112c-0.005,0.009-0.055,0.04-0.15,0.091s-0.201,0.107-0.315,0.168c-0.115,0.061-0.223,0.119-0.326,0.175c-0.103,0.056-0.166,0.091-0.189,0.105c-0.009,0.004-0.027,0.014-0.053,0.028c-0.025,0.014-0.054,0.029-0.084,0.045c-0.03,0.017-0.058,0.032-0.084,0.045c-0.025,0.014-0.045,0.023-0.06,0.028c-0.004,0-0.011,0.002-0.021,0.007c-0.009,0.004-0.016,0.007-0.021,0.007c-0.004,0-0.014-0.004-0.028-0.014l-0.07-0.378v-2.45c-0.052-0.14-0.077-0.29-0.077-0.448v-0.434v-0.105c0-0.061,0.001-0.12,0.003-0.179c0.002-0.058,0.003-0.116,0.003-0.171v-0.119c0.014-0.135,0.076-0.256,0.186-0.364c0.11-0.107,0.236-0.2,0.378-0.277c0.143-0.077,0.29-0.135,0.441-0.175c0.151-0.04,0.276-0.06,0.375-0.06c0,0.658,0.016,1.301,0.049,1.929c0.033,0.627,0.049,1.271,0.049,1.928V41.574z"/><path class="st3" d="M94.375,29.5C90.854,29.5,88,32.074,88,35.25S90.854,41,94.375,41s6.375-2.574,6.375-5.75S97.896,29.5,94.375,29.5z M96.372,37.286l-2.255,1.371c0,0,0-2.417-0.141-2.548c-0.141-0.131-2.725-0.044-2.725-0.044l-0.376-3.008c0,0,1.269-1.003,1.738-1.003c0.188,0.436,0.141,2.137,0.564,2.18s0.939,0.61,0.658-0.785c-0.282-1.395,0.081-0.828,0.081-0.828s1-0.829,1.517-0.567C95.949,32.315,96.654,36.806,96.372,37.286z"/><path class="st3" d="M93.375,15.708c-2.14,0-3.875,1.8-3.875,4.021c0,2.22,1.735,4.021,3.875,4.021s3.875-1.8,3.875-4.021C97.25,17.509,95.515,15.708,93.375,15.708z M92.756,21.984c-0.599-0.241-0.252-0.562-0.756-1.417c0.567,0.214,1.292,0.214,1.355,0s-1.386-0.481-1.386-0.481l-0.599-0.962l0.158-1.229l2.835-0.165c0,0,0.41,0.779,0.347,1.047c-0.063,0.267-1.335,0.187-1.335,0.187s-0.178,0.267,0,0.348c0.178,0.08,1.493,0.107,1.997,0.989C95.529,21.183,93.355,22.225,92.756,21.984z"/><g><path class="st34" d="M103.306,25.828c-0.451,0.125-0.66,0.575-0.18,0.726c0.48,0.151,1.121-0.079,1.161-0.514C104.287,26.04,103.75,25.737,103.306,25.828z"/><path class="st34" d="M103.75,20.917c-4.142,0-7.5,1.921-7.5,4.292s3.358,4.292,7.5,4.292s7.5-1.921,7.5-4.292S107.892,20.917,103.75,20.917z M102.606,27.777c-1.361-0.198-0.881-1.798-0.841-3.008s2.362-1.573,3.162-1.573c0,0,0.44,0.696,0.4,1.21c-0.24,0.424-1.681-0.211-1.578,0.545c1.985,0.182,2.059,0.938,2.099,1.512C105.888,27.038,103.967,27.976,102.606,27.777z"/></g><path class="st22" d="M114.25,10.5c-2.624,0-4.75,2.332-4.75,5.208s2.126,5.208,4.75,5.208s4.75-2.332,4.75-5.208S116.874,10.5,114.25,10.5z M116.219,14.579c-0.276,0.358-2.193,4.667-2.193,4.667s-0.763-0.048-1.121-0.886c0,0,0.877-2.84,1.202-3.333c-0.829,0.299-1.251,0.359-1.462,0.165c-0.211-0.194-0.618-0.627-0.39-1.106c0.925-0.553,3.07-1.151,3.46-0.912C116.105,13.412,116.495,14.219,116.219,14.579z"/><g><path class="st26" d="M106.666,47.565c0,0,0.292,0.742,0.576,0.742s0.809-0.594,0.575-0.742C107.584,47.417,106.666,47.565,106.666,47.565z"/><path class="st26" d="M106.797,49.481c-0.131,0.137-0.015,0.742,0.444,0.755c0.459,0.012,0.444-0.755,0.444-0.755C107.497,49.333,106.928,49.346,106.797,49.481z"/><path class="st26" d="M107.125,43.202c-3.521,0-6.375,2.498-6.375,5.578c0,3.081,2.854,5.579,6.375,5.579s6.375-2.498,6.375-5.579C113.5,45.7,110.646,43.202,107.125,43.202z M109.396,50.502c-0.437,0.643-2.024,1.279-3.438,0.794c-0.903-0.287-1.283-0.931-1.253-1.363c0.043-0.621,1.178-1.101,1.006-1.101c-0.75,0-1.34-1.348-0.816-1.954s1.661-1.004,3.642-0.651c0.729,0.49,1.063,0.676,1.005,1.133c-0.059,0.458-0.262,1.286-0.903,1.471C109.308,49.092,109.833,49.858,109.396,50.502z"/></g><g><path class="st12" d="M137.019,46.139c0.003-0.123,0.037-1.033-0.655-0.867C135.707,45.43,136.839,46.083,137.019,46.139z"/><path class="st12" d="M136.534,42.117c-2.846,0-5.153,1.854-5.153,4.14c0,2.287,2.307,4.141,5.153,4.141s5.153-1.854,5.153-4.141C141.687,43.97,139.38,42.117,136.534,42.117z M138.485,48.34c-0.069,0.199-0.248,0.109-1.103,0c-0.854-0.109-0.124-1.155-0.51-1.205s-1.419-0.199-2.301-1.186s0.11-1.554,0.786-1.832c0.675-0.278,3.018,0.428,3.486,1.075C138.844,45.192,138.554,48.141,138.485,48.34z"/></g><g><path class="st6" d="M158.744,19.663c-0.602,0.112-0.861,0.325-1.041,0.618c-0.179,0.293,0.108,0.943,0.521,0.976c0.413,0.033,1.13-0.167,1.202-0.653S159.061,19.604,158.744,19.663z"/><path class="st6" d="M156.25,15.708c-3.452,0-6.25,2.192-6.25,4.896c0,2.704,2.798,4.896,6.25,4.896s6.25-2.192,6.25-4.896C162.5,17.9,159.702,15.708,156.25,15.708z M153.007,24.027c0,0-0.658-4.636-0.3-4.956c0.359-0.321,1.316-0.571,2.333-0.571l0.239,4.849L153.007,24.027z M159.533,22.754c-1.722,0.716-2.87-0.195-3.437-1.627c-0.566-1.431,0.462-2.377,2.146-2.863c0.789-0.228,1.947,0.22,2.511,1.106C161.291,20.216,161.256,22.039,159.533,22.754z"/></g><path class="st31" d="M160.75,39.266c-4.004,0-7.25,2.33-7.25,5.203c0,2.873,3.246,5.203,7.25,5.203s7.25-2.33,7.25-5.203C168,41.595,164.754,39.266,160.75,39.266z M157.566,47.149c0,0-0.658-4.636-0.3-4.956c0.359-0.321,1.316-0.571,2.333-0.571l0.239,4.849L157.566,47.149z M161.566,47.148c0,0-0.658-4.636-0.3-4.956c0.359-0.321,1.316-0.571,2.333-0.571l0.239,4.849L161.566,47.148z"/><path class="st24" d="M187.5,34.25c-2.14,0-3.875,1.364-3.875,3.047c0,1.682,1.735,3.046,3.875,3.046s3.875-1.364,3.875-3.046C191.375,35.614,189.64,34.25,187.5,34.25z M185.364,39.139c0,0-0.388-3.09-0.177-3.303c0.212-0.214,0.775-0.38,1.375-0.38l0.141,3.232L185.364,39.139z M190.137,37.342c-0.255,0.166-0.795,0.37-1.079,0.37c-0.396,0.563,0.909,0.281,1.052,0.46c0.142,0.179-0.029,0.767-0.285,1.048c-0.51,0.025-2.186,0-2.186,0s-0.313-1.788,0-2.095s0.908-0.307,1.221-0.383c-0.256-0.435-1.221-0.435-1.221-0.435c0.028-0.689,0.397-0.945,0.539-0.945c0.143,0,1.704,0.179,2.102,0.689C190.677,36.563,190.393,37.176,190.137,37.342z"/><path class="st23" d="M180,16.182c-2.209,0-4,1.653-4,3.693c0,2.039,1.791,3.692,4,3.692s4-1.653,4-3.692C184,17.835,182.209,16.182,180,16.182z M178.075,21.717c0,0-0.388-3.09-0.177-3.303c0.212-0.214,0.775-0.38,1.375-0.38l0.141,3.232L178.075,21.717z M181.396,21.052c-1.069-0.145-1.485-0.18-1.366-0.677c0.119-0.498,1.188-0.068,1.277-0.018c0.089,0.052,0.594,0.104,0.356-0.154c-0.237-0.257-1.129-0.377-0.979-0.549c-0.106-0.1-0.149-0.258,0.445-0.24c0.594,0.017,0.545-0.12,0.391-0.309c-0.153-0.189-0.896-0.12-1.074-0.31c-0.178-0.188-0.06-0.343-0.06-0.343c0.653-0.155,1.931-0.052,2.228,0.12c0.77,0.444,0.408,1.046-0.297,1.179c0.416,0.125,0.683,0.537,0.713,0.777C183.059,20.77,182.465,21.196,181.396,21.052z"/><path class="st7" d="M178.063,42.688c-2.589,0-4.688,1.626-4.688,3.633c0,2.006,2.099,3.633,4.688,3.633s4.688-1.627,4.688-3.633C182.75,44.314,180.651,42.688,178.063,42.688z M176.153,48.162c0,0-0.388-3.09-0.177-3.303c0.212-0.214,0.775-0.38,1.375-0.38l0.141,3.232L176.153,48.162z M181.042,45.457c-0.229,0.193-1.813,2.514-1.813,2.514s-0.632-0.026-0.927-0.477c0,0,0.725-1.53,0.994-1.795c-0.686,0.161-1.034,0.193-1.209,0.088c-0.175-0.104-0.51-0.338-0.321-0.596c0.765-0.298,2.537-0.62,2.859-0.491C180.948,44.828,181.27,45.263,181.042,45.457z"/><g><path class="st27" d="M168.871,57.876c-0.376,0.059-0.538,0.172-0.65,0.326c-0.111,0.154,0.067,0.498,0.325,0.516s0.705-0.088,0.751-0.345C169.342,58.116,169.068,57.845,168.871,57.876z"/><path class="st27" d="M168.719,54.986c-2.191,0-3.969,1.517-3.969,3.387s1.777,3.387,3.969,3.387s3.969-1.517,3.969-3.387S170.91,54.986,168.719,54.986z M169.363,59.509c-1.075,0.379-1.792-0.104-2.146-0.859s0.288-1.256,1.34-1.513c0.492-0.12,1.216,0.116,1.567,0.585C170.461,58.168,170.439,59.131,169.363,59.509z"/></g><path class="st6" d="M220.568,52.573c-2.851,0-5.162,1.978-5.162,4.419s2.312,4.419,5.162,4.419c2.852,0,5.163-1.978,5.163-4.419S223.42,52.573,220.568,52.573z M217.926,59.003c0,0-0.388-3.09-0.177-3.303c0.212-0.214,0.775-0.381,1.375-0.381l0.141,3.232L217.926,59.003z M223.458,58.298l-1.185,0.797c0,0,0-1.404-0.074-1.48s-1.433-0.025-1.433-0.025l-0.197-1.748c0,0,0.667-0.584,0.913-0.584c0.099,0.254,0.074,1.242,0.297,1.268c0.222,0.025,0.494,0.354,0.346-0.457c-0.148-0.811,0.042-0.48,0.042-0.48s0.525-0.481,0.797-0.33C223.235,55.409,223.606,58.019,223.458,58.298z"/><path class="st22" d="M74.333,48.798c-2.929,0-5.303,1.956-5.303,4.368c0,2.413,2.374,4.368,5.303,4.368s5.303-1.955,5.303-4.368C79.636,50.754,77.262,48.798,74.333,48.798z M76.376,54.618c0.041,0.436-0.768,1.211-2.222,0.947c-1.455-0.263-2.02-0.325-1.858-1.228c0.162-0.903,1.616-0.125,1.737-0.031c0.122,0.094,0.808,0.187,0.485-0.28s-1.535-0.685-1.333-0.996c-0.144-0.181-0.202-0.468,0.606-0.437s0.742-0.217,0.533-0.561c-0.209-0.342-1.219-0.217-1.462-0.561c-0.242-0.342-0.081-0.622-0.081-0.622c0.889-0.28,2.625-0.094,3.03,0.218c1.047,0.808,0.556,1.898-0.404,2.14C75.972,53.435,76.336,54.182,76.376,54.618z"/><path class="st28" d="M65.563,58.5c-2.252,0-4.078,1.874-4.078,4.186c0,2.311,1.826,4.185,4.078,4.185s4.078-1.874,4.078-4.185C69.641,60.374,67.815,58.5,65.563,58.5z M67.312,62.734c-0.389,0.183-1.211,0.408-1.642,0.408c-0.604,0.619,1.383,0.31,1.599,0.507s-0.043,0.845-0.432,1.154c-0.778,0.028-3.326,0-3.326,0s-0.475-1.971,0-2.309s1.382-0.338,1.857-0.423c-0.389-0.479-1.857-0.479-1.857-0.479c0.043-0.76,0.604-1.041,0.82-1.041c0.216,0,2.592,0.197,3.196,0.76C68.132,61.876,67.7,62.552,67.312,62.734z"/></g></svg>