<?xml version="1.0" encoding="utf-8"?>
<!-- Generator: Adobe Illustrator 15.1.0, SVG Export Plug-In . SVG Version: 6.00 Build 0)  -->
<!DOCTYPE svg PUBLIC "-//W3C//DTD SVG 1.1//EN" "http://www.w3.org/Graphics/SVG/1.1/DTD/svg11.dtd">
<svg version="1.1" id="Layer_1" xmlns="http://www.w3.org/2000/svg" xmlns:xlink="http://www.w3.org/1999/xlink" x="0px" y="0px"
	 width="600px" height="200px" viewBox="0 0 600 200" style="enable-background:new 0 0 600 200;" xml:space="preserve">
<style type="text/css">
<![CDATA[
	.st0{fill:#49A246;}
	.st1{fill:#ACDFE8;}
	.st2{fill:#1096A0;}
	.st3{fill:#7FBC42;}
	.st4{fill:#E8D4A6;}
	.st5{fill:#B095C5;}
	.st6{font-size:162.9101;}
	.st7{fill:#EF4738;}
	.st8{fill:#57BEEC;}
	.st9{fill:#F284AD;}
	.st10{fill:#F58256;}
	.st11{fill:#F6BC85;}
	.st12{fill:#F9C5D2;}
	.st13{fill:#F9D41B;}
	.st14{fill:#5F3578;}
	.st15{clip-path:url(#SVGID_2_);}
	.st16{fill:#C2D089;}
	.st17{fill:#C2DEF0;}
	.st18{letter-spacing:-22.071;}
	.st19{letter-spacing:-25.466;}
	.st20{font-family:'ARDARLING';}
]]>
</style>
<g>
	<defs>
		<text id="SVGID_1_" transform="matrix(0.589 0 0 1 0.1475 147.5527)"><tspan x="0" y="0" class="st20 st6">BE</tspan><tspan x="208.522" y="0" class="st20 st6 st18"> </tspan><tspan x="234.586" y="0" class="st20 st6">CRE</tspan><tspan x="559.424" y="0" class="st20 st6 st19">A</tspan><tspan x="637.293" y="0" class="st20 st6">TIVE</tspan></text>
	</defs>
	<clipPath id="SVGID_2_">
		<use xlink:href="#SVGID_1_"  style="overflow:visible;"/>
	</clipPath>
	<g class="st15">
		<ellipse class="st8" cx="0.148" cy="34.932" rx="61.904" ry="88.309"/>
		<ellipse class="st9" cx="91.659" cy="29.811" rx="61.904" ry="88.311"/>
		<ellipse class="st12" cx="178.684" cy="29.811" rx="61.905" ry="88.311"/>
		<ellipse class="st13" cx="268.4" cy="29.811" rx="61.904" ry="88.311"/>
		<path class="st10" d="M420.021,29.811c0,48.773-27.714,88.311-61.905,88.311c-34.187,0-61.902-39.538-61.902-88.311
			c0-48.771,27.715-88.307,61.902-88.307C392.307-58.496,420.021-18.96,420.021,29.811z"/>
		<path class="st4" d="M506.146,29.811c0,48.773-27.714,88.311-61.904,88.311c-34.187,0-61.9-39.538-61.9-88.311
			c0-48.771,27.714-88.307,61.9-88.307C478.432-58.496,506.146-18.96,506.146,29.811z"/>
		<path class="st3" d="M595.864,29.811c0,48.773-27.715,88.311-61.906,88.311c-34.188,0-61.9-39.538-61.9-88.311
			c0-48.771,27.712-88.307,61.9-88.307C568.149-58.496,595.864-18.96,595.864,29.811z"/>
		<ellipse class="st0" cx="621.879" cy="29.811" rx="61.905" ry="88.311"/>
		<path class="st17" d="M62.052,147.555c0,48.773-27.715,88.308-61.903,88.308c-34.19,0-61.905-39.534-61.905-88.308
			c0-48.778,27.715-88.307,61.905-88.307C34.337,59.248,62.052,98.777,62.052,147.555z"/>
		<path class="st7" d="M153.563,153.957c0,48.768-27.715,88.302-61.902,88.302c-34.19,0-61.905-39.534-61.905-88.302
			c0-48.771,27.715-88.311,61.905-88.311C125.848,65.646,153.563,105.186,153.563,153.957z"/>
		<ellipse class="st11" cx="183.169" cy="155.234" rx="61.904" ry="88.309"/>
		<path class="st14" d="M330.304,153.957c0,48.768-27.717,88.302-61.904,88.302s-61.903-39.534-61.903-88.302
			c0-48.771,27.716-88.311,61.903-88.311S330.304,105.186,330.304,153.957z"/>
		<path class="st1" d="M509.737,153.957c0,48.768-27.717,88.302-61.907,88.302c-34.189,0-61.902-39.534-61.902-88.302
			c0-48.771,27.713-88.311,61.902-88.311C482.021,65.646,509.737,105.186,509.737,153.957z"/>
		<path class="st2" d="M595.864,153.957c0,48.768-27.715,88.302-61.906,88.302c-34.188,0-61.9-39.534-61.9-88.302
			c0-48.771,27.712-88.311,61.9-88.311C568.149,65.646,595.864,105.186,595.864,153.957z"/>
		<path class="st16" d="M683.784,153.957c0,48.768-27.712,88.302-61.902,88.302c-34.191,0-61.907-39.534-61.907-88.302
			c0-48.771,27.716-88.311,61.907-88.311C656.072,65.646,683.784,105.186,683.784,153.957z"/>
		<path class="st5" d="M420.021,153.957c0,48.768-27.714,88.302-61.905,88.302c-34.187,0-61.902-39.534-61.902-88.302
			c0-48.771,27.715-88.311,61.902-88.311C392.307,65.646,420.021,105.186,420.021,153.957z"/>
	</g>
</g>
</svg>
