<?xml version="1.0" encoding="utf-8"?>
<!-- Generator: Adobe Illustrator 15.1.0, SVG Export Plug-In . SVG Version: 6.00 Build 0)  -->
<!DOCTYPE svg PUBLIC "-//W3C//DTD SVG 1.1//EN" "http://www.w3.org/Graphics/SVG/1.1/DTD/svg11.dtd">
<svg version="1.1" id="Layer_1" xmlns="http://www.w3.org/2000/svg" xmlns:xlink="http://www.w3.org/1999/xlink" x="0px" y="0px"
	 width="600px" height="600px" viewBox="0 0 600 600" style="enable-background:new 0 0 600 600;" xml:space="preserve">
<style type="text/css">
<![CDATA[
	.st0{fill:#138040;}
	.st1{fill:#F8C02A;}
	.st2{fill:none;stroke:#58595B;stroke-width:3;stroke-miterlimit:10;}
	.st3{fill:#33BA9A;}
	.st4{fill:#065184;}
	.st5{fill:#A93423;}
	.st6{fill:#444444;}
]]>
</style>
<path class="st6" d="M571.778,111.585H28.22c-8.437,0-15.275,6.839-15.275,15.275v309.332c0,8.436,6.839,15.276,15.275,15.276
	h242.307l-13.007,38.283l-32.944,7.589v7.592h75.423h75.425v-7.592l-32.943-7.589l-13.009-38.283h242.307
	c8.437,0,15.276-6.841,15.276-15.276V126.86C587.055,118.424,580.215,111.585,571.778,111.585z M555.23,366.179
	c0,8.436-6.84,15.276-15.275,15.276H60.045c-8.437,0-15.276-6.841-15.276-15.276V153.593c0-8.437,6.839-15.275,15.276-15.275h479.91
	c8.436,0,15.275,6.839,15.275,15.275V366.179z"/>
<path class="st1" d="M158.197,268.504c-6.645-1.18-13.662-0.832-20.545,1.337c-22.798,7.184-35.455,31.491-28.271,54.288
	c7.185,22.799,31.49,35.457,54.288,28.271c20.426-6.438,32.701-26.618,29.868-47.146c-14.841,1.307-29.581,2.688-44.473,5.035
	C152.734,296.389,155.385,282.471,158.197,268.504z"/>
<path class="st1" d="M166.857,262.104c-2.811,13.966-5.463,27.885-9.132,41.785c14.892-2.349,29.631-3.729,44.473-5.034
	c-0.328-2.384-0.849-4.771-1.596-7.142C195.586,275.797,182.224,264.834,166.857,262.104z"/>
<rect x="336.28" y="170.142" class="st3" width="168.031" height="38.189"/>
<rect x="336.28" y="222.333" class="st3" width="122.204" height="32.133"/>
<rect x="336.28" y="267.837" class="st3" width="92.927" height="20.893"/>
<line class="st2" x1="336.28" y1="319.079" x2="504.312" y2="319.079"/>
<line class="st2" x1="336.28" y1="335.628" x2="504.312" y2="335.628"/>
<line class="st2" x1="336.28" y1="352.176" x2="504.312" y2="352.176"/>
<g>
	<line class="st2" x1="101.412" y1="233.309" x2="101.412" y2="167.115"/>
	<line class="st2" x1="101.412" y1="233.309" x2="253.525" y2="233.309"/>
	<rect x="121.473" y="189.179" class="st5" width="20.42" height="44.129"/>
	<rect x="156.186" y="171.528" class="st0" width="21.283" height="60.31"/>
	<rect x="193.622" y="180.354" class="st4" width="20.833" height="51.484"/>
</g>
</svg>
