<?xml version="1.0" encoding="utf-8"?>
<!-- Generator: Adobe Illustrator 15.1.0, SVG Export Plug-In . SVG Version: 6.00 Build 0)  -->
<!DOCTYPE svg PUBLIC "-//W3C//DTD SVG 1.1//EN" "http://www.w3.org/Graphics/SVG/1.1/DTD/svg11.dtd">
<svg version="1.1" xmlns="http://www.w3.org/2000/svg" xmlns:xlink="http://www.w3.org/1999/xlink" x="0px" y="0px" width="300px"
	 height="100px" viewBox="0 0 300 100" style="enable-background:new 0 0 300 100;" xml:space="preserve">
<style type="text/css">
<![CDATA[
	.st0{fill:#808285;}
	.st1{fill:#868789;}
	
		.st2{fill:none;stroke:#939598;stroke-width:0.25;stroke-linecap:round;stroke-linejoin:round;stroke-miterlimit:10;stroke-dasharray:1,3;}
	.st3{fill:none;stroke:#39B54A;stroke-width:0.75;stroke-linecap:round;stroke-linejoin:round;stroke-miterlimit:10;}
	.st4{fill:#929393;}
	.st5{fill:none;stroke:#808285;stroke-width:0.25;stroke-linecap:round;stroke-linejoin:round;stroke-miterlimit:10;}
	.st6{fill:#939598;}
	.st7{fill:none;stroke:#00AEEF;stroke-width:0.75;stroke-linecap:round;stroke-linejoin:round;stroke-miterlimit:10;}
	.st8{fill:#9D9FA0;}
	.st9{fill:none;stroke:#808285;stroke-width:0.75;stroke-miterlimit:10;}
	.st10{fill:#D1D3D4;}
	.st11{fill:none;stroke:#888C8C;stroke-miterlimit:10;}
	.st12{fill:none;stroke:#808285;stroke-miterlimit:10;}
	.st13{fill:#A7A9AC;}
	
		.st14{fill:none;stroke:#808285;stroke-width:0.75;stroke-linecap:round;stroke-linejoin:round;stroke-miterlimit:10;stroke-dasharray:3,2;}
]]>
</style>
<g id="coordinate">
	<line class="st9" x1="59.316" y1="10.349" x2="59.316" y2="89.099"/>
	<line class="st9" x1="41.316" y1="49.724" x2="272.566" y2="49.599"/>
	<line class="st9" x1="59.316" y1="10.349" x2="56.066" y2="14.599"/>
	<line class="st9" x1="59.316" y1="10.349" x2="62.316" y2="14.599"/>
	<line class="st5" x1="112.066" y1="14.849" x2="112.066" y2="84.599"/>
	<line class="st5" x1="165.316" y1="14.849" x2="165.316" y2="84.599"/>
	<line class="st5" x1="218.566" y1="14.849" x2="218.566" y2="84.599"/>
	<path class="st14" d="M59.316,49.599"/>
	<line class="st2" x1="49.066" y1="20.525" x2="247.566" y2="20.474"/>
	<line class="st2" x1="49.066" y1="36.349" x2="247.566" y2="36.349"/>
	<line class="st2" x1="49.066" y1="63.849" x2="247.566" y2="63.849"/>
	<line class="st2" x1="49.066" y1="78.956" x2="247.566" y2="78.956"/>
</g>
<g id="number">
	<g>
		<path class="st8" d="M101.798,14.309c0.74-0.278,2.185-0.093,2.521,0.216c0.872,0.8,0.463,1.881-0.336,2.121
			c0.471,0.224,0.773,0.965,0.807,1.397c0.034,0.432-0.639,1.2-1.849,0.939c-1.21-0.26-1.681-0.322-1.546-1.217
			c0.134-0.895,1.344-0.123,1.445-0.031c0.101,0.093,0.672,0.186,0.403-0.277s-1.277-0.679-1.109-0.987
			c-0.12-0.179-0.168-0.462,0.504-0.432c0.672,0.031,0.618-0.216,0.443-0.555s-1.015-0.216-1.217-0.555
			C101.665,14.586,101.798,14.309,101.798,14.309z"/>
		<path class="st8" d="M109.17,15.449c-0.444-0.829-1.356-1.247-1.977-1.034c-1.326,0.454-2.135,1.338-1.689,2.677
			c0.446,1.339,1.35,2.19,2.706,1.521C109.565,17.944,109.594,16.24,109.17,15.449z M108.125,16.603
			c-0.057,0.455-0.622,0.641-0.946,0.611c-0.325-0.031-0.551-0.639-0.41-0.913c0.141-0.273,0.346-0.473,0.819-0.578
			C107.837,15.668,108.181,16.149,108.125,16.603z"/>
	</g>
	<path class="st0" d="M84.188,45.135c-0.523-0.767-1.597-1.155-2.329-0.958c-1.562,0.421-2.515,1.239-1.989,2.479
		s1.59,2.028,3.187,1.409C84.654,47.444,84.688,45.867,84.188,45.135z M82.957,46.203c-0.066,0.42-0.731,0.593-1.114,0.565
		c-0.382-0.028-0.649-0.592-0.482-0.845c0.166-0.253,0.407-0.438,0.965-0.535C82.618,45.337,83.024,45.782,82.957,46.203z"/>
	<g>
		<path class="st13" d="M231.912,30.926l1.717-0.878l-0.18-6.282c-0.769,0-1.491,0.324-1.762,0.739S231.912,30.926,231.912,30.926z"
			/>
		<path class="st13" d="M234.522,30.926l1.717-0.878l-0.181-6.282c-0.768,0-1.49,0.324-1.761,0.739
			C234.026,24.92,234.522,30.926,234.522,30.926z"/>
	</g>
	<g>
		<path class="st13" d="M82.403,89.652l1.703-0.947l-0.179-6.771c-0.762,0-1.479,0.349-1.748,0.797
			C81.91,83.177,82.403,89.652,82.403,89.652z"/>
		<path class="st13" d="M85.266,81.842l-0.244,2.19l0.927,1.714c0,0,2.244,0.477,2.147,0.857c-0.098,0.381-1.22,0.381-2.099,0
			c0.781,1.524,0.244,2.095,1.171,2.523s4.294-1.428,4.05-3c-0.781-1.57-2.817-1.619-3.093-1.761c-0.274-0.144,0-0.619,0-0.619
			s1.97,0.143,2.068-0.334c0.098-0.476-0.537-1.864-0.537-1.864L85.266,81.842z"/>
	</g>
	<g>
		<path class="st0" d="M53.985,72.313l-0.168,1.581l0.639,1.237c0,0,1.546,0.343,1.479,0.618s-0.84,0.275-1.445,0
			c0.538,1.101,0.168,1.513,0.807,1.822c0.639,0.309,2.958-1.031,2.79-2.166c-0.538-1.134-1.94-1.169-2.13-1.271
			c-0.189-0.104,0-0.447,0-0.447s1.357,0.104,1.424-0.24s-0.37-1.346-0.37-1.346L53.985,72.313z"/>
		<path class="st1" d="M50.09,73.546c-0.095-0.962,0.332-1.383,0.515-1.408c0.183-0.025,2.227-0.053,2.837,0.586
			s0.361,1.541,0.063,1.817c-0.297,0.275-0.954,0.654-1.319,0.704c-0.404,0.851,1.225,0.23,1.442,0.453s0.109,1.069-0.166,1.504
			c-0.653,0.127-2.815,0.388-2.815,0.388s-0.744-2.428-0.4-2.909c0.343-0.48,1.111-0.587,1.499-0.748
			C51.333,73.375,50.09,73.546,50.09,73.546z"/>
		<path class="st12" d="M47.196,74.858c0,0,0.716,0,1.602,0"/>
	</g>
	<g>
		<path class="st13" d="M138.095,57.475c-0.591-0.996-1.806-1.5-2.634-1.245c-1.766,0.548-2.844,1.611-2.25,3.221
			c0.594,1.61,1.798,2.635,3.605,1.829C138.622,60.475,138.66,58.426,138.095,57.475z M136.703,58.862
			c-0.075,0.547-0.828,0.771-1.26,0.734c-0.433-0.037-0.734-0.768-0.546-1.097c0.188-0.33,0.46-0.57,1.091-0.696
			C136.319,57.738,136.778,58.316,136.703,58.862z"/>
		<path class="st13" d="M130.804,62.187l1.692-0.738l-0.178-5.284c-0.757,0-1.469,0.272-1.736,0.622S130.804,62.187,130.804,62.187z
			"/>
		<path class="st11" d="M127.648,58.862c0,0,0.954,0,2.133,0"/>
	</g>
	<g>
		<path class="st10" d="M209.719,70.57c0.069-2.151,0.974-2.948,1.322-2.948s4.178,0.559,5.152,2.151
			c0.975,1.596,0.278,3.507-0.349,4.025c-0.626,0.519-1.952,1.156-2.647,1.156c-0.973,1.753,2.229,0.876,2.578,1.435
			c0.348,0.558-0.069,2.39-0.696,3.268c-1.253,0.08-5.36,0-5.36,0s-0.766-5.579,0-6.536c0.765-0.956,2.227-0.956,2.993-1.196
			C212.086,70.57,209.719,70.57,209.719,70.57z"/>
		<path class="st10" d="M201.815,78.463c0,0,1.611-5.83,2.207-6.843c-1.521,0.613-2.296,0.736-2.685,0.338
			c-0.388-0.399-1.134-1.289-0.717-2.271c1.701-1.136,5.64-2.362,6.356-1.872c0.716,0.49,1.432,2.148,0.925,2.886
			c-0.508,0.735-4.028,9.581-4.028,9.581S202.472,80.182,201.815,78.463z"/>
	</g>
	<path class="st4" d="M191.132,38.944c0.846-0.253,1.115-1.385,1.192-2.01s-0.365-0.878-1.327-1.548
		c-2.616-0.483-4.117,0.062-4.81,0.89c-0.692,0.827,0.087,2.668,1.077,2.668c0.229,0-1.271,0.654-1.328,1.503
		c-0.039,0.592,0.463,1.47,1.655,1.862c1.866,0.663,3.963-0.207,4.54-1.085S192.017,39.299,191.132,38.944z M189.287,40.862
		c-0.605-0.018-0.76-0.845-0.587-1.03c0.174-0.187,0.924-0.203,1.174,0C189.874,39.832,189.894,40.879,189.287,40.862z
		 M189.287,38.228c-0.375,0-0.76-1.014-0.76-1.014s1.212-0.203,1.52,0S189.662,38.228,189.287,38.228z"/>
	<g>
		<path class="st6" d="M170.842,81.783l-0.251,2.3l0.954,1.801c0,0,2.309,0.5,2.208,0.9c-0.1,0.399-1.255,0.399-2.158,0
			c0.803,1.601,0.251,2.2,1.204,2.651c0.954,0.45,4.418-1.501,4.167-3.151c-0.804-1.65-2.898-1.701-3.181-1.852
			c-0.283-0.149,0-0.649,0-0.649s2.026,0.15,2.127-0.351c0.1-0.5-0.553-1.959-0.553-1.959L170.842,81.783z"/>
		<path class="st6" d="M180.268,84.187c-0.141-1.271,1.825-0.204,2.152-0.915c0.055-0.864-0.545-2.034-0.545-2.034
			c-1.093,0-4.259,0.609-4.313,2.645c-0.055,2.033-0.709,4.724,1.146,5.056c1.855,0.334,4.476-1.243,4.422-2.209
			C183.075,85.764,182.975,84.49,180.268,84.187z M179.418,86.882c-0.656-0.254-0.37-1.011,0.246-1.221
			c0.604-0.152,1.337,0.355,1.337,0.355C180.946,86.748,180.073,87.137,179.418,86.882z"/>
	</g>
</g>
<g id="sine_wave">
	<g>
		<path class="st3" d="M59.316,78.905c26.5-0.182,26.5-58.432,52.75-58.432"/>
		<path class="st3" d="M165.184,78.939c-26.747-0.182-26.747-58.432-53.242-58.432"/>
		<path class="st3" d="M165.108,78.939c26.918-0.182,26.918-58.432,53.583-58.432"/>
	</g>
	<g>
		<path class="st7" d="M76.004,78.923c26.5-0.182,26.5-58.432,52.75-58.432"/>
		<path class="st7" d="M181.871,78.956c-26.747-0.182-26.747-58.431-53.242-58.431"/>
		<path class="st7" d="M181.796,78.956c26.919-0.182,26.919-58.432,53.583-58.432"/>
	</g>
</g>
</svg>
