<?xml version="1.0" encoding="utf-8"?>
<!-- Generator: Adobe Illustrator 15.1.0, SVG Export Plug-In . SVG Version: 6.00 Build 0)  -->
<!DOCTYPE svg PUBLIC "-//W3C//DTD SVG 1.1//EN" "http://www.w3.org/Graphics/SVG/1.1/DTD/svg11.dtd">
<svg version="1.1" xmlns="http://www.w3.org/2000/svg" xmlns:xlink="http://www.w3.org/1999/xlink" x="0px" y="0px" width="300px"
	 height="300px" viewBox="0 0 300 300" style="enable-background:new 0 0 300 300;" xml:space="preserve">
<style type="text/css">
<![CDATA[
	.st0{fill:#E5EFC1;}
	.st1{fill:#557980;}
	.st2{fill:#FFFFFF;}
	.st3{fill:#A2D5AA;}
	.st4{fill:#43ADA8;}
]]>
</style>
<g id="Layer_1">
	<rect class="st0" width="150" height="150"/>
	<rect x="150" class="st3" width="150" height="150"/>
	<rect x="0" y="150.001" class="st4" width="150" height="150"/>
	<rect x="150" y="150.001" class="st1" width="150" height="149.999"/>
</g>
<g id="Layer_2">
	<g>
		<path class="st2" d="M121.898,74.849c2.75,0,3.357-1.538,1.35-3.417L79.282,30.287c-2.008-1.879-5.312-1.899-7.342-0.044
			L26.793,71.477c-2.031,1.854-1.442,3.372,1.308,3.372h9.148c2.75,0,5,2.25,5,5v31.281c0,2.75,2.25,5,5,5h12.372c2.75,0,5-2.25,5-5
			V94.211c0-2.75,2.25-5,5-5h11.634c2.75,0,5,2.25,5,5v16.918c0,2.75,2.25,5,5,5h11.494c2.75,0,5-2.25,5-5V79.849c0-2.75,2.25-5,5-5
			H121.898z"/>
	</g>
	<g>
		<g>
			<path class="st2" d="M174.833,59.796c0,1.104,0.896,2,2,2h16c1.104,0,2-0.896,2-2V45.463c0-1.104-0.896-2-2-2h-16
				c-1.104,0-2,0.896-2,2V59.796z"/>
		</g>
		<g>
			<path class="st2" d="M204.5,59.796c0,1.104,0.896,2,2,2h66.333c1.104,0,2-0.896,2-2V45.463c0-1.104-0.896-2-2-2H206.5
				c-1.104,0-2,0.896-2,2V59.796z"/>
		</g>
		<g>
			<path class="st2" d="M175.166,86.796c0,1.104,0.896,2,2,2h16c1.104,0,2-0.896,2-2V72.463c0-1.104-0.896-2-2-2h-16
				c-1.104,0-2,0.896-2,2V86.796z"/>
		</g>
		<g>
			<path class="st2" d="M204.833,86.796c0,1.104,0.896,2,2,2h66.333c1.104,0,2-0.896,2-2V72.463c0-1.104-0.896-2-2-2h-66.333
				c-1.104,0-2,0.896-2,2V86.796z"/>
		</g>
		<g>
			<path class="st2" d="M175.166,114.13c0,1.104,0.896,2,2,2h16c1.104,0,2-0.896,2-2V99.796c0-1.104-0.896-2-2-2h-16
				c-1.104,0-2,0.896-2,2V114.13z"/>
		</g>
		<g>
			<path class="st2" d="M204.833,114.13c0,1.104,0.896,2,2,2h66.333c1.104,0,2-0.896,2-2V99.796c0-1.104-0.896-2-2-2h-66.333
				c-1.104,0-2,0.896-2,2V114.13z"/>
		</g>
	</g>
	<path class="st2" d="M103.051,225.359L103.051,225.359c2.304-4.392,3.615-9.388,3.615-14.692C106.667,193.178,92.489,179,75,179
		c-17.489,0-31.667,14.178-31.667,31.667c0,5.305,1.311,10.301,3.616,14.692h-0.001l0.033,0.063c0.077,0.146,0.151,0.293,0.23,0.438
		l27.788,52.807l27.789-52.807c0.079-0.145,0.153-0.292,0.23-0.438L103.051,225.359z M74.999,194.333c8.008,0,14.5,6.492,14.5,14.5
		s-6.492,14.5-14.5,14.5s-14.5-6.492-14.5-14.5S66.991,194.333,74.999,194.333z"/>
	<g>
		<path class="st2" d="M233.586,274.411c0.231-1.634,0.984-4.197,1.674-5.696c0,0,3.457-7.524,9.119-7.509
			c1.886,0.007,2.405,0.23,2.405,0.23c1.515,0.654,3.924,1.862,5.354,2.685l5.097,2.932c1.431,0.822,3.696,0.706,5.034-0.259
			l2.494-1.97c1.249-1.079,1.487-3.061,0.53-4.405l-2.332-3.275c-0.957-1.345-2.171-3.724-2.696-5.288c0,0-2.643-7.857,1.384-12.025
			c1.342-1.389,1.868-1.616,1.868-1.616c1.514-0.656,4.045-1.584,5.624-2.063l9.769-2.961c1.579-0.479,2.906-1.309,2.949-1.845
			c0,0,0,0,0.02-0.492c0.077-2.081,0.002-3.163,0.002-3.163c-0.114-1.646-1.543-3.195-3.174-3.442l-6.55-0.992
			c-1.631-0.247-4.174-1.052-5.65-1.787c0,0-7.115-3.547-7.081-9.458c0.013-1.969,0.267-2.604,0.267-2.604
			c0.61-1.533,1.742-3.98,2.515-5.438l3.267-6.167c0.772-1.458,0.389-3.541-0.853-4.628l-2.489-1.982
			c-1.33-0.977-3.484-0.945-4.787,0.067l-1.728,1.345c-1.303,1.013-3.635,2.31-5.182,2.882c0,0-7.446,2.754-11.425-1.437
			c-1.325-1.396-1.574-2.027-1.574-2.027c-0.604-1.535-1.458-4.093-1.896-5.684l-0.872-3.167c-0.438-1.591-1.888-2.99-3.222-3.11
			c0,0,0,0-1.233-0.047c-2.238-0.084-3.622-0.015-3.622-0.015c-1.647,0.082-3.186,1.486-3.417,3.12l-0.021,0.138
			c-0.231,1.634-0.984,4.197-1.674,5.696c0,0-3.457,7.522-9.118,7.508c-1.885-0.006-2.404-0.23-2.404-0.23
			c-1.515-0.654-3.924-1.863-5.354-2.686l-5.099-2.932c-1.431-0.822-3.696-0.706-5.034,0.259l-2.494,1.971
			c-1.249,1.078-1.488,3.06-0.531,4.403l2.334,3.278c0.957,1.344,2.171,3.723,2.696,5.287c0,0,2.643,7.856-1.383,12.025
			c-1.342,1.389-1.869,1.617-1.869,1.617c-1.514,0.655-4.045,1.583-5.624,2.062l-9.77,2.963c-1.579,0.479-2.906,1.307-2.948,1.841
			c0,0,0,0-0.02,0.493c-0.077,2.081-0.002,3.165-0.002,3.165c0.114,1.646,1.542,3.195,3.173,3.442l6.55,0.99
			c1.631,0.247,4.174,1.052,5.65,1.787c0,0,7.115,3.547,7.083,9.461c-0.013,1.967-0.267,2.604-0.267,2.604
			c-0.611,1.532-1.743,3.979-2.516,5.438l-3.266,6.167c-0.772,1.458-0.389,3.541,0.853,4.628l2.488,1.983
			c1.331,0.976,3.485,0.944,4.787-0.069l1.727-1.343c1.302-1.014,3.634-2.311,5.181-2.883c0,0,7.447-2.753,11.427,1.438
			c1.325,1.397,1.573,2.026,1.573,2.026c0.605,1.534,1.46,4.092,1.897,5.683l0.871,3.167c0.438,1.591,1.887,2.99,3.22,3.11
			c0,0,0,0,1.232,0.046c2.239,0.084,3.625,0.015,3.625,0.015c1.647-0.081,3.186-1.485,3.417-3.119L233.586,274.411z M203.42,227.89
			c0.505-13.362,12.084-23.774,25.865-23.253c13.777,0.521,24.54,11.775,24.036,25.138c-0.506,13.362-12.087,23.773-25.866,23.253
			S202.915,241.251,203.42,227.89z"/>
	</g>
</g>
</svg>
