<?xml version="1.0" encoding="utf-8"?>
<!-- Generator: Adobe Illustrator 15.1.0, SVG Export Plug-In . SVG Version: 6.00 Build 0)  -->
<!DOCTYPE svg PUBLIC "-//W3C//DTD SVG 1.1//EN" "http://www.w3.org/Graphics/SVG/1.1/DTD/svg11.dtd">
<svg version="1.1" xmlns="http://www.w3.org/2000/svg" xmlns:xlink="http://www.w3.org/1999/xlink" x="0px" y="0px" width="300px"
	 height="100px" viewBox="0 0 300 100" style="enable-background:new 0 0 300 100;" xml:space="preserve">
<style type="text/css">
<![CDATA[
	.st0{fill:#14A085;}
	.st1{opacity:0.76;fill:none;stroke:#F9F9FA;stroke-miterlimit:10;}
	.st2{opacity:0.76;}
	.st3{fill:none;stroke:#939292;stroke-miterlimit:10;}
	.st4{fill:#8BC97C;}
	.st5{fill:#F5F7F7;}
	.st6{fill:none;stroke:#FFFEFE;stroke-width:0.5;stroke-miterlimit:10;}
	.st7{fill:#939598;}
	.st8{fill:#FFFFFF;}
	.st9{fill:none;stroke:#939598;stroke-width:0.5;stroke-miterlimit:10;}
	.st10{opacity:0.76;fill:#14A085;}
	.st11{fill:none;stroke:#FFFFFF;stroke-width:0.75;stroke-miterlimit:10;}
]]>
</style>
<g id="Layer_3">
	<g>
		<path class="st5" d="M26.719,69.5c0,1.104,0.896,2,2,2h64.25c1.104,0,2-0.896,2-2V29.75c0-1.104-0.896-2-2-2h-64.25
			c-1.104,0-2,0.896-2,2V69.5z"/>
		<path class="st9" d="M26.719,69.5c0,1.104,0.896,2,2,2h64.25c1.104,0,2-0.896,2-2V29.75c0-1.104-0.896-2-2-2h-64.25
			c-1.104,0-2,0.896-2,2V69.5z"/>
	</g>
	<g>
		<path class="st5" d="M120.5,85.25c0,1.104,0.896,2,2,2h55c1.104,0,2-0.896,2-2V14.5c0-1.104-0.896-2-2-2h-55c-1.104,0-2,0.896-2,2
			V85.25z"/>
		<path class="st9" d="M120.5,85.25c0,1.104,0.896,2,2,2h55c1.104,0,2-0.896,2-2V14.5c0-1.104-0.896-2-2-2h-55c-1.104,0-2,0.896-2,2
			V85.25z"/>
	</g>
	<g>
		<path class="st5" d="M205.75,70.75c0,1.104,0.896,2,2,2h63.75c1.104,0,2-0.896,2-2v-41c0-1.104-0.896-2-2-2h-63.75
			c-1.104,0-2,0.896-2,2V70.75z"/>
		<path class="st9" d="M205.75,70.75c0,1.104,0.896,2,2,2h63.75c1.104,0,2-0.896,2-2v-41c0-1.104-0.896-2-2-2h-63.75
			c-1.104,0-2,0.896-2,2V70.75z"/>
	</g>
</g>
<g id="content">
	<rect x="211.5" y="35.625" class="st4" width="23.5" height="7.375"/>
	<rect x="243.25" y="35.563" class="st4" width="23.5" height="7.375"/>
	<rect x="64.344" y="38.063" class="st4" width="18.25" height="27.875"/>
	<rect x="32.844" y="37.797" class="st4" width="18.25" height="27.156"/>
	<g class="st2">
		<path class="st0" d="M126.5,25.5c0,1.104,0.896,2,2,2h43c1.104,0,2-0.896,2-2v-5.25c0-1.104-0.896-2-2-2h-43c-1.104,0-2,0.896-2,2
			V25.5z"/>
	</g>
	<rect x="126.25" y="58.313" class="st10" width="47" height="4.375"/>
	<rect x="32.844" y="33.813" class="st10" width="18.25" height="4.25"/>
	<rect x="64.344" y="33.688" class="st10" width="18.25" height="4.375"/>
	<rect x="211.5" y="49.625" class="st10" width="23.5" height="5.625"/>
	<rect x="243.25" y="49.5" class="st10" width="23.5" height="5.75"/>
	<rect x="218.75" y="37.875" class="st8" width="9.25" height="2.75"/>
	<rect x="251.25" y="37.875" class="st8" width="9" height="2.75"/>
	<rect x="35.844" y="43.188" class="st8" width="6.125" height="19"/>
	<rect x="67.344" y="43.188" class="st8" width="6.125" height="19"/>
	<rect x="126.5" y="36" class="st4" width="47" height="14.75"/>
	<rect x="126.25" y="62.688" class="st4" width="47" height="17.313"/>
	<rect x="211.5" y="55.25" class="st4" width="23.5" height="10.625"/>
	<rect x="243.25" y="55.25" class="st4" width="23.5" height="10.5"/>
</g>
<g id="skeleton">
	<line class="st3" x1="55.594" y1="40.813" x2="60.844" y2="40.813"/>
	<line class="st3" x1="55.594" y1="45.688" x2="60.844" y2="45.688"/>
	<line class="st3" x1="55.594" y1="50.563" x2="60.844" y2="50.563"/>
	<line class="st3" x1="55.594" y1="55.438" x2="60.844" y2="55.438"/>
	<line class="st3" x1="55.594" y1="60.313" x2="60.844" y2="60.313"/>
	<line class="st3" x1="86.094" y1="40.813" x2="91.344" y2="40.813"/>
	<line class="st3" x1="86.094" y1="45.688" x2="91.344" y2="45.688"/>
	<line class="st3" x1="86.094" y1="50.563" x2="91.344" y2="50.563"/>
	<line class="st3" x1="86.094" y1="55.438" x2="91.344" y2="55.438"/>
	<line class="st3" x1="86.094" y1="60.313" x2="91.344" y2="60.313"/>
	<line class="st1" x1="141.25" y1="36" x2="141.25" y2="50.75"/>
	<line class="st1" x1="158" y1="36" x2="158" y2="50.75"/>
	<line class="st6" x1="132" y1="66.25" x2="167.5" y2="66.25"/>
	<line class="st6" x1="132" y1="69.5" x2="167.5" y2="69.5"/>
	<line class="st6" x1="132" y1="72.75" x2="167.5" y2="72.75"/>
	<line class="st6" x1="132" y1="76" x2="167.5" y2="76"/>
	<g>
		<line class="st11" x1="215.125" y1="58.25" x2="231.375" y2="58.25"/>
		<line class="st11" x1="215.125" y1="60.125" x2="231.375" y2="60.125"/>
		<line class="st11" x1="215.125" y1="62" x2="231.375" y2="62"/>
	</g>
	<g>
		<line class="st11" x1="246.875" y1="58.25" x2="263.125" y2="58.25"/>
		<line class="st11" x1="246.875" y1="60.125" x2="263.125" y2="60.125"/>
		<line class="st11" x1="246.875" y1="62" x2="263.125" y2="62"/>
	</g>
	<g>
		<rect x="104.031" y="51.313" class="st7" width="7.5" height="2.125"/>
		<polygon class="st7" points="111.969,49.25 111.969,55.5 116.719,52.375 		"/>
		<polygon class="st7" points="103.406,49.25 103.406,55.5 99.031,52.375 		"/>
	</g>
	<g>
		<rect x="188.781" y="51.375" class="st7" width="7.5" height="2.125"/>
		<polygon class="st7" points="196.719,49.313 196.719,55.563 201.469,52.438 		"/>
		<polygon class="st7" points="188.156,49.313 188.156,55.563 183.781,52.438 		"/>
	</g>
</g>
</svg>
